<svg xmlns="http://www.w3.org/2000/svg" viewBox="0 0 603 182" fill="none">
  <path d="M374.01 142.37c-34.81 25.68-85.28 39.36-128.73 39.36-60.91 0-115.77-22.53-157.27-59.96-3.26-2.95-.34-6.97 3.57-4.67 44.78 26.05 100.14 41.74 157.35 41.74 38.58 0 81.01-8 120.06-24.58 5.89-2.51 10.82 3.86 5.02 8.11z" fill="#FF9900"/>
  <path d="M388.3 126.21c-4.43-5.68-29.36-2.69-40.54-1.36-3.4.41-3.93-2.55-.86-4.68 19.85-13.96 52.42-9.93 56.22-5.25 3.81 4.7-.99 37.33-19.62 52.91-2.86 2.4-5.59 1.12-4.32-2.05 4.2-10.49 13.56-33.91 9.12-39.57z" fill="#FF9900"/>
  <path d="M348.58 20.85V6.53c0-2.17 1.65-3.63 3.63-3.63h64.2c2.06 0 3.71 1.5 3.71 3.63V18.8c-.02 2.07-1.77 4.77-4.86 9.04l-33.26 47.5c12.36-.3 25.42 1.54 36.63 7.87 2.52 1.43 3.21 3.53 3.4 5.6v15.27c0 2.1-2.32 4.56-4.75 3.29-19.85-10.4-46.2-11.54-68.14.11-2.24 1.2-4.59-1.22-4.59-3.32v-14.5c0-2.35.03-6.37 3.24-9.95l38.54-55.29h-33.55c-2.06 0-3.71-1.47-3.71-3.6h-.29z" fill="#232F3E"/>
  <path d="M124.59 80.86h-19.5c-1.87-.14-3.35-1.54-3.49-3.33V6.82c0-2.01 1.68-3.61 3.76-3.61h18.17c1.89.09 3.4 1.54 3.54 3.35v12.18h.36c4.74-11.94 13.66-17.5 25.65-17.5 12.18 0 19.79 5.56 25.24 17.5 4.72-11.94 15.46-17.5 26.95-17.5 8.18 0 17.12 3.38 22.59 10.96 6.18 8.44 4.93 20.71 4.93 31.46l-.02 33.62c0 2.01-1.68 3.63-3.76 3.63h-19.48c-1.95-.14-3.51-1.7-3.51-3.63V44.61c0-4.23.38-14.77-.54-18.78-1.46-6.71-5.81-8.59-11.45-8.59-4.72 0-9.65 3.16-11.67 8.2-2.02 5.04-1.83 13.45-1.83 19.17v32.66c0 2.01-1.68 3.63-3.76 3.63h-19.48c-1.96-.14-3.51-1.7-3.51-3.63l-.02-32.66c0-11.17 1.83-27.6-12-27.6-13.99 0-13.46 16.02-13.46 27.6v32.66c0 2.01-1.68 3.63-3.76 3.63z" fill="#232F3E"/>
  <path d="M45.02 1.24C66.83 1.24 78.8 18.75 78.8 41.48c0 21.87-13.44 39.02-33.78 39.02-21.1 0-32.68-18.01-32.68-40.33 0-22.5 11.78-38.93 32.68-38.93zm.12 14.36c-10.67 0-11.34 14.53-11.34 23.58 0 9.07-.18 28.45 11.2 28.45 11.21 0 11.74-15.63 11.74-25.15 0-6.27-.27-13.77-2.17-19.77-1.64-5.23-4.91-7.11-9.43-7.11z" fill="#232F3E"/>
  <path d="M280.79 80.86h-19.43c-1.95-.14-3.51-1.7-3.51-3.63l-.03-70.6c0-2.01 1.71-3.42 3.76-3.42h18.1c1.71.08 3.09 1.27 3.44 2.87v10.79h.36c5.4-10.31 12.96-15.22 26.27-15.22 8.75 0 17.29 3.16 22.78 11.77 5.1 7.98 5.1 21.42 5.1 31.05v33.06c-.08 1.91-1.73 3.45-3.76 3.45h-19.57c-1.84-.13-3.33-1.62-3.44-3.45V43.77c0-10.94 1.27-26.96-12.17-26.96-4.74 0-9.09 3.17-11.27 7.98-2.76 6.08-3.12 12.15-3.12 18.98v33.48c-.02 2.01-1.73 3.63-3.79 3.63h.28z" fill="#232F3E"/>
</svg>
