<svg width="32" height="32" viewBox="0 0 32 32" fill="none" xmlns="http://www.w3.org/2000/svg">
<path d="M29.7062 7.20109C29.4097 7.05577 29.2819 7.33272 29.1085 7.47341C29.0492 7.5188 28.999 7.57778 28.9488 7.63224C28.5153 8.09516 28.0088 8.39936 27.3472 8.36299C26.3798 8.30849 25.5539 8.61269 24.8238 9.35257C24.6687 8.44021 24.1531 7.89543 23.3682 7.546C22.9576 7.3644 22.5423 7.18281 22.2548 6.78789C22.0541 6.50655 21.9993 6.19334 21.8989 5.88465C21.835 5.69858 21.7711 5.50786 21.5567 5.47608C21.3239 5.43981 21.2327 5.63491 21.1414 5.79841C20.7764 6.4657 20.6349 7.20104 20.6486 7.94545C20.6805 9.62045 21.3878 10.9549 22.7932 11.9036C22.9529 12.0126 22.994 12.1214 22.9438 12.2804C22.8479 12.6072 22.7338 12.9249 22.6335 13.2517C22.5696 13.4606 22.4737 13.506 22.2502 13.4151C21.479 13.0929 20.8128 12.6162 20.2242 12.0398C19.2249 11.0729 18.3214 10.0063 17.1944 9.17102C16.9297 8.97583 16.665 8.79433 16.3912 8.62176C15.2413 7.50519 16.5418 6.58821 16.843 6.47935C17.1578 6.36586 16.9525 5.97542 15.9349 5.98006C14.9174 5.98454 13.9865 6.32501 12.8002 6.77892C12.6268 6.84702 12.4442 6.89689 12.2571 6.93775C11.1803 6.73353 10.0623 6.68805 8.89418 6.81977C6.69478 7.06484 4.93808 8.10433 3.64675 9.87916C2.09536 12.0125 1.73033 14.4364 2.17751 16.9647C2.64751 19.6292 4.00725 21.8352 6.09714 23.5602C8.26461 25.3485 10.7606 26.2246 13.6079 26.0566C15.3373 25.9568 17.2629 25.7253 19.4349 23.887C19.9824 24.1593 20.5574 24.2682 21.5111 24.3499C22.2457 24.418 22.953 24.3136 23.5005 24.2002C24.3584 24.0186 24.2991 23.2242 23.9888 23.079C21.4746 21.9079 22.0267 22.3845 21.5248 21.9987C22.8024 20.4872 24.728 18.9165 25.4809 13.8281C25.5402 13.4242 25.49 13.17 25.4809 12.8431C25.4763 12.6435 25.522 12.5663 25.7501 12.5436C26.3798 12.4709 26.9913 12.2985 27.5525 11.9898C29.1815 11.1002 29.8386 9.63858 29.9937 7.88647C30.0166 7.61863 29.9892 7.34169 29.7062 7.20109ZM15.5107 22.97C13.074 21.0546 11.8922 20.4235 11.404 20.4508C10.9477 20.478 11.0298 21.0001 11.1301 21.3405C11.2351 21.6764 11.372 21.9079 11.5636 22.2029C11.696 22.3981 11.7873 22.6886 11.4314 22.9065C10.6465 23.3922 9.28213 22.7431 9.21821 22.7113C7.63035 21.7762 6.3025 20.5415 5.36703 18.8531C4.46355 17.2279 3.93884 15.485 3.85211 13.6239C3.82929 13.1746 3.96161 13.0156 4.40879 12.934C4.99742 12.8251 5.60432 12.8023 6.19294 12.8885C8.67985 13.2517 10.7971 14.3638 12.572 16.125C13.585 17.1281 14.3516 18.3265 15.141 19.4976C15.9806 20.7412 16.8841 21.9261 18.034 22.8974C18.4401 23.2378 18.764 23.4965 19.0743 23.6872C18.139 23.7916 16.5784 23.8144 15.5107 22.97ZM16.6788 15.4577C16.6788 15.258 16.8385 15.0992 17.0393 15.0992C17.085 15.0992 17.126 15.1082 17.1625 15.1218C17.2128 15.14 17.2584 15.1672 17.2949 15.208C17.3588 15.2716 17.3952 15.3623 17.3952 15.4577C17.3952 15.6574 17.2356 15.8162 17.0349 15.8162C16.8341 15.8162 16.6788 15.6575 16.6788 15.4577ZM20.3064 17.3188C20.0737 17.4142 19.841 17.4958 19.6174 17.5049C19.2706 17.523 18.8919 17.3823 18.6866 17.2098C18.3672 16.942 18.139 16.7923 18.0432 16.3247C18.0021 16.125 18.0249 15.8163 18.0615 15.6393C18.1436 15.258 18.0523 15.013 17.7831 14.7905C17.5641 14.6089 17.2857 14.559 16.98 14.559C16.8659 14.559 16.761 14.509 16.6834 14.4682C16.5556 14.4047 16.4508 14.2458 16.5511 14.0506C16.583 13.9871 16.7382 13.8327 16.7747 13.8055C17.19 13.5694 17.6691 13.6466 18.1117 13.8237C18.5224 13.9916 18.8327 14.3003 19.2798 14.736C19.7361 15.2625 19.8182 15.4079 20.0783 15.8027C20.2838 16.1114 20.4708 16.4291 20.5986 16.7923C20.6761 17.0193 20.5757 17.2053 20.3064 17.3188Z" fill="#4D6BFE"/>
</svg>
