<svg width="32" height="32" viewBox="0 0 32 32" fill="none" xmlns="http://www.w3.org/2000/svg">
<path d="M25.7187 7.0692C23.9062 6.27248 21.9681 5.69344 19.942 5.36377C19.6932 5.78643 19.4025 6.35491 19.2021 6.80714C17.0482 6.50284 14.9142 6.50284 12.8 6.80714C12.5997 6.35491 12.3022 5.78643 12.0512 5.36377C10.0229 5.69344 8.08271 6.2746 6.27023 7.07342C2.61442 12.2636 1.62339 17.325 2.1189 22.3145C4.54362 24.0157 6.89347 25.049 9.20364 25.7252C9.77408 24.9878 10.2828 24.2038 10.7211 23.3774C9.88633 23.0795 9.08693 22.7118 8.33157 22.2848C8.53202 22.1454 8.72802 21.9996 8.9174 21.8495C13.5247 23.8741 18.5303 23.8741 23.0826 21.8495C23.2741 21.9996 23.4701 22.1454 23.6683 22.2848C22.9108 22.7138 22.1091 23.0815 21.2744 23.3796C21.7126 24.2038 22.2192 24.9899 22.7918 25.7274C25.1042 25.0512 27.4562 24.0178 29.881 22.3145C30.4624 16.5304 28.8878 11.5155 25.7187 7.0692ZM11.3487 19.246C9.96562 19.246 8.83149 18.0329 8.83149 16.5558C8.83149 15.0786 9.94144 13.8634 11.3487 13.8634C12.7559 13.8634 13.8901 15.0765 13.8659 16.5558C13.8682 18.0329 12.7559 19.246 11.3487 19.246ZM20.6512 19.246C19.2681 19.246 18.134 18.0329 18.134 16.5558C18.134 15.0786 19.2439 13.8634 20.6512 13.8634C22.0584 13.8634 23.1927 15.0765 23.1684 16.5558C23.1684 18.0329 22.0584 19.246 20.6512 19.246Z" fill="#5865F2"/>
</svg>
