<svg width="32" height="32" viewBox="0 0 32 32" fill="none" xmlns="http://www.w3.org/2000/svg">
<path d="M30 2.01534C29.9821 2.0414 29.9643 2.06755 29.9462 2.09348C29.3226 2.98706 28.689 3.87371 28.0786 4.77636C27.5862 5.50455 27.1611 6.27318 26.8278 7.09105C26.3439 8.27833 26.1643 9.51363 26.2371 10.7912C26.2843 11.6184 26.4178 12.4322 26.6007 13.2384C26.8296 14.2471 26.9414 15.2673 26.8843 16.3018C26.7421 18.8762 25.8038 21.1147 24.0581 22.9981C22.5431 24.6327 20.6933 25.6879 18.5178 26.1371C16.299 26.5951 14.1553 26.323 12.0894 25.3985C11.4783 25.125 10.8984 24.794 10.3447 24.4163C10.3293 24.4059 10.3145 24.3945 10.2921 24.3782C10.3138 24.3657 10.3299 24.3548 10.3472 24.3466C11.3659 23.8699 12.3849 23.3938 13.403 22.9158C13.4491 22.8941 13.486 22.9009 13.5292 22.9176C14.5779 23.3227 15.662 23.5251 16.7864 23.4788C18.5186 23.4073 20.0465 22.7994 21.3613 21.663C22.752 20.461 23.6226 18.9483 23.9462 17.128C24.2106 15.6411 24.0485 14.1944 23.4855 12.7945C23.2897 12.3076 22.7472 12.1184 22.2744 12.3688C22.2167 12.3993 22.1621 12.437 22.1096 12.4762C19.064 14.7461 16.0189 17.0165 12.9736 19.2868C12.9479 19.306 12.9218 19.3248 12.8959 19.3438C12.891 19.3385 12.8862 19.3332 12.8813 19.3279C18.5821 13.5519 24.2828 7.77597 29.9835 2C29.989 2.00511 29.9945 2.01023 30 2.01534Z" fill="black"/>
<path d="M10.8755 21.1023C7.91883 23.7689 4.96522 26.4328 2.0116 29.0968C2.00774 29.0941 2.00386 29.0914 2 29.0887C2.01459 29.0678 2.02867 29.0464 2.04387 29.0259C2.46381 28.4598 2.93241 27.9359 3.40997 27.4195C3.9831 26.7998 4.56232 26.1857 5.1251 25.5566C5.61822 25.0053 6.0623 24.4148 6.41666 23.7605C6.69588 23.245 6.90018 22.7029 6.98601 22.1191C7.09532 21.3756 7.00089 20.6543 6.73653 19.9563C6.5478 19.4579 6.3592 18.9604 6.22679 18.443C5.92629 17.2687 5.82896 16.078 5.929 14.8695C6.20956 11.4805 8.06065 8.44303 10.9281 6.67812C12.1964 5.89752 13.5691 5.41091 15.0429 5.22059C16.8712 4.9845 18.639 5.21932 20.352 5.90834C21.0956 6.20744 21.7946 6.58203 22.4461 7.04922C22.4632 7.06152 22.4801 7.07425 22.4967 7.08729C22.5001 7.08999 22.5017 7.095 22.5073 7.10399C22.4842 7.11534 22.4618 7.12677 22.439 7.13738C21.4303 7.60767 20.4217 8.07822 19.4122 8.54663C19.3805 8.56133 19.3335 8.56725 19.3024 8.55494C17.1588 7.70795 15.0448 7.81018 12.9869 8.81688C10.9871 9.7952 9.69606 11.4115 9.00968 13.528C8.69461 14.4996 8.58264 15.5001 8.67593 16.5189C8.83812 18.29 9.56561 19.7915 10.8184 21.0383C10.8334 21.0532 10.8485 21.068 10.8633 21.0832C10.8664 21.0864 10.8683 21.0909 10.8755 21.1023Z" fill="black"/>
</svg>
