<svg width="32" height="32" viewBox="0 0 32 32" fill="none" xmlns="http://www.w3.org/2000/svg">
<g clip-path="url(#clip0_2000_7080)">
<path d="M24.9524 0H7.04762C3.15533 0 0 3.15533 0 7.04762V24.9524C0 28.8447 3.15533 32 7.04762 32H24.9524C28.8447 32 32 28.8447 32 24.9524V7.04762C32 3.15533 28.8447 0 24.9524 0Z" fill="url(#paint0_linear_2000_7080)"/>
<path d="M16.0001 5.53955C12.8851 5.53957 9.89767 6.57028 7.69501 8.40494C5.49235 10.2396 4.2549 12.7279 4.25488 15.3225C4.25772 17.0102 4.78467 18.6686 5.78451 20.1364C6.78435 21.6043 8.22308 22.8318 9.96088 23.6995C9.49804 24.7357 8.80388 25.7074 7.90713 26.5743C9.64613 26.269 11.2786 25.6277 12.6774 24.7003C13.7559 24.9673 14.875 25.1037 16.0001 25.1056C19.1152 25.1055 22.1026 24.0748 24.3053 22.2402C26.5079 20.4055 27.7454 17.9172 27.7454 15.3225C27.7454 12.7279 26.5079 10.2396 24.3053 8.40494C22.1026 6.57028 19.1152 5.53957 16.0001 5.53955Z" fill="white"/>
</g>
<defs>
<linearGradient id="paint0_linear_2000_7080" x1="16.254" y1="29.8758" x2="16.254" y2="3.97135" gradientUnits="userSpaceOnUse">
<stop stop-color="#0CBD2A"/>
<stop offset="1" stop-color="#5BF675"/>
</linearGradient>
<clipPath id="clip0_2000_7080">
<rect width="32" height="32" fill="white"/>
</clipPath>
</defs>
</svg>
