<svg width="32" height="32" viewBox="0 0 32 32" fill="none" xmlns="http://www.w3.org/2000/svg">
<path d="M27.8069 13.4602C28.4422 11.5536 28.2235 9.46491 27.2076 7.73063C25.6798 5.07057 22.6085 3.70204 19.6089 4.34605C18.2745 2.84277 16.3573 1.98788 14.3474 2.00013C11.2813 1.99313 8.56091 3.96717 7.61764 6.88448C5.64797 7.28787 3.94781 8.52077 2.95291 10.2682C1.41376 12.9212 1.76464 16.2656 3.82093 18.5406C3.18567 20.4473 3.40442 22.5359 4.42032 24.2702C5.9481 26.9303 9.01942 28.2988 12.019 27.6548C13.3525 29.1581 15.2706 30.013 17.2805 29.9999C20.3483 30.0077 23.0696 28.0319 24.0129 25.112C25.9825 24.7086 27.6827 23.4757 28.6776 21.7283C30.215 19.0752 29.8632 15.7335 27.8078 13.4585L27.8069 13.4602ZM17.2822 28.1702C16.0546 28.1719 14.8654 27.7423 13.923 26.9557C13.9659 26.9329 14.0403 26.8918 14.0884 26.862L19.664 23.642C19.9493 23.4801 20.1243 23.1765 20.1225 22.8483V14.988L22.479 16.3487C22.5043 16.3609 22.521 16.3854 22.5245 16.4134V22.9227C22.521 25.8173 20.1768 28.1641 17.2822 28.1702ZM6.00848 23.355C5.39334 22.2927 5.17196 21.0475 5.38284 19.8391C5.42397 19.8636 5.49659 19.9083 5.54822 19.938L11.1238 23.1581C11.4065 23.3235 11.7565 23.3235 12.04 23.1581L18.8468 19.2275V21.9488C18.8485 21.9768 18.8354 22.0039 18.8135 22.0214L13.1775 25.2756C10.6671 26.7212 7.46101 25.8619 6.00935 23.355H6.00848ZM4.54107 11.1843C5.15358 10.1203 6.12048 9.30654 7.27201 8.8839C7.27201 8.93203 7.26938 9.01691 7.26938 9.07641V15.5174C7.26763 15.8447 7.44263 16.1483 7.72702 16.3102L14.5338 20.2399L12.1774 21.6005C12.1537 21.6163 12.124 21.6189 12.0977 21.6075L6.46086 18.3507C3.95568 16.8999 3.09642 13.6948 4.5402 11.1852L4.54107 11.1843ZM23.9017 15.6898L17.095 11.7592L19.4514 10.3994C19.475 10.3837 19.5048 10.3811 19.531 10.3924L25.1679 13.6466C27.6774 15.0965 28.5376 18.307 27.0877 20.8165C26.4743 21.8788 25.5083 22.6926 24.3576 23.1161V16.4826C24.3602 16.1553 24.1861 15.8526 23.9026 15.6898H23.9017ZM26.2468 12.16C26.2057 12.1346 26.133 12.0908 26.0814 12.0611L20.5058 8.84103C20.2232 8.67565 19.8731 8.67565 19.5896 8.84103L12.7829 12.7716V10.0503C12.7811 10.0223 12.7942 9.99518 12.8161 9.97768L18.4521 6.72611C20.9625 5.27795 24.1721 6.13984 25.6194 8.65115C26.231 9.71167 26.4524 10.9533 26.245 12.16H26.2468ZM11.5018 17.0102L9.14455 15.6495C9.11917 15.6373 9.10254 15.6128 9.09904 15.5848V9.07553C9.10079 6.17747 11.452 3.82892 14.35 3.83067C15.5759 3.83067 16.7625 4.26118 17.7049 5.04519C17.662 5.06795 17.5885 5.10907 17.5395 5.13882L11.9639 8.35889C11.6786 8.52077 11.5036 8.82353 11.5053 9.15166L11.5018 17.0085V17.0102ZM12.782 14.2504L15.8139 12.4995L18.8459 14.2495V17.7505L15.8139 19.5005L12.782 17.7505V14.2504Z" fill="black"/>
</svg>
