<svg width="32" height="32" viewBox="0 0 32 32" fill="none" xmlns="http://www.w3.org/2000/svg">
<path d="M16 2C8.268 2 2 8.268 2 16C2 23.732 8.268 30 16 30C23.732 30 30 23.732 30 16C30 8.268 23.732 2 16 2Z" fill="#3A76F0"/>
<path d="M16.002 6.4C10.699 6.4 6.402 10.697 6.402 16C6.402 17.72 6.87 19.33 7.688 20.72L6.4 25.6L11.44 24.34C12.78 25.08 14.34 25.6 16.002 25.6C21.305 25.6 25.602 21.303 25.602 16C25.602 10.697 21.305 6.4 16.002 6.4Z" fill="white"/>
<circle cx="11.5" cy="16" r="1.5" fill="#3A76F0"/>
<circle cx="16" cy="16" r="1.5" fill="#3A76F0"/>
<circle cx="20.5" cy="16" r="1.5" fill="#3A76F0"/>
</svg>
