<svg width="32" height="33" viewBox="0 0 32 33" fill="none" xmlns="http://www.w3.org/2000/svg">
<g filter="url(#filter0_f_2000_7074)">
<path d="M9.95924 25.2858L10.3674 25.5276C12.0818 26.545 14.0475 27.0833 16.052 27.0842H16.0562C22.2122 27.0842 27.2221 22.0753 27.2247 15.919C27.2258 12.9357 26.0652 10.1303 23.9565 8.01998C22.9223 6.97924 21.6919 6.15397 20.3365 5.59195C18.9812 5.02992 17.5278 4.74231 16.0606 4.74576C9.89989 4.74576 4.88975 9.75407 4.88756 15.91C4.88453 18.0121 5.47648 20.0722 6.59498 21.852L6.86071 22.2742L5.73223 26.394L9.95924 25.2858ZM2.50586 29.5857L4.41235 22.6249C3.23657 20.5878 2.618 18.2768 2.61873 15.9091C2.62183 8.50231 8.64941 2.47656 16.0564 2.47656C19.6508 2.47839 23.0245 3.87717 25.5618 6.41629C28.0991 8.95542 29.4952 12.3305 29.4939 15.9199C29.4906 23.3262 23.4621 29.353 16.0562 29.353H16.0504C13.8016 29.3521 11.592 28.788 9.62923 27.7177L2.50586 29.5857Z" fill="#B3B3B3"/>
</g>
<path d="M2.36816 29.4475L4.27466 22.4867C3.09685 20.4447 2.47819 18.1283 2.48103 15.7709C2.48414 8.36413 8.51171 2.33838 15.9187 2.33838C19.5131 2.34021 22.8868 3.73898 25.4241 6.27811C27.9614 8.81724 29.3575 12.1923 29.3562 15.7817C29.3529 23.188 23.3244 29.2148 15.9185 29.2148H15.9127C13.6639 29.2139 11.4543 28.6498 9.49153 27.5795L2.36816 29.4475Z" fill="white"/>
<path d="M15.9226 4.60745C9.76185 4.60745 4.75171 9.61576 4.74952 15.7717C4.74649 17.8738 5.33844 19.9338 6.45695 21.7137L6.72268 22.1361L5.59419 26.2559L9.82139 25.1475L10.2296 25.3893C11.9439 26.4067 13.9096 26.9448 15.9142 26.9459H15.9184C22.0743 26.9459 27.0845 21.937 27.0868 15.7807C27.0915 14.3133 26.805 12.8597 26.244 11.5038C25.6831 10.1479 24.8587 8.91678 23.8187 7.88167C22.7844 6.84091 21.554 6.01562 20.1986 5.4536C18.8432 4.89158 17.3898 4.60398 15.9226 4.60745Z" fill="url(#paint0_linear_2000_7074)"/>
<path fill-rule="evenodd" clip-rule="evenodd" d="M12.56 10.1553C12.3083 9.59624 12.0435 9.58492 11.8044 9.57524L11.1608 9.56738C10.9369 9.56738 10.5731 9.65139 10.2656 9.98744C9.95802 10.3235 9.09033 11.1356 9.09033 12.7875C9.09033 14.4394 10.2935 16.0357 10.4612 16.2599C10.6288 16.4842 12.7839 19.9821 16.1967 21.328C19.0328 22.4464 19.6099 22.2239 20.2258 22.1681C20.8416 22.1122 22.2122 21.3559 22.4918 20.5719C22.7715 19.7878 22.7716 19.1161 22.6878 18.9757C22.604 18.8352 22.3801 18.7517 22.044 18.5837C21.708 18.4157 20.0575 17.6035 19.7498 17.4914C19.4421 17.3793 19.2184 17.3236 18.9943 17.6596C18.7702 17.9957 18.1275 18.7516 17.9315 18.9757C17.7356 19.1997 17.54 19.2279 17.2039 19.06C16.8679 18.8922 15.7867 18.5375 14.5039 17.3937C13.5058 16.5037 12.8321 15.4047 12.6359 15.0688C12.4398 14.7329 12.6151 14.551 12.7835 14.3837C12.9342 14.2333 13.1192 13.9916 13.2874 13.7957C13.4556 13.5997 13.5109 13.4596 13.6227 13.2359C13.7345 13.0122 13.6788 12.8157 13.5948 12.6478C13.5108 12.48 12.8584 10.8193 12.56 10.1553Z" fill="white"/>
<defs>
<filter id="filter0_f_2000_7074" x="1.21611" y="1.18682" width="29.5678" height="29.6884" filterUnits="userSpaceOnUse" color-interpolation-filters="sRGB">
<feFlood flood-opacity="0" result="BackgroundImageFix"/>
<feBlend mode="normal" in="SourceGraphic" in2="BackgroundImageFix" result="shape"/>
<feGaussianBlur stdDeviation="0.644873" result="effect1_foregroundBlur_2000_7074"/>
</filter>
<linearGradient id="paint0_linear_2000_7074" x1="15.6908" y1="5.94797" x2="15.804" y2="25.0375" gradientUnits="userSpaceOnUse">
<stop stop-color="#57D163"/>
<stop offset="1" stop-color="#23B33A"/>
</linearGradient>
</defs>
</svg>
