<svg width="32" height="32" viewBox="0 0 32 32" fill="none" xmlns="http://www.w3.org/2000/svg">
<g clip-path="url(#clip0_18_73)">
<path d="M24.4211 7.5791H7.57898V24.4212H24.4211V7.5791Z" fill="white"/>
<path d="M24.4211 31.9999L32 24.421L28.2106 23.7744L24.4211 24.421L23.7294 27.8872L24.4211 31.9999Z" fill="#EA4335"/>
<path d="M0 24.421V29.4736C0 30.8694 1.13053 31.9999 2.52632 31.9999H7.57895L8.35711 28.2104L7.57895 24.421L3.4499 23.7744L0 24.421Z" fill="#188038"/>
<path d="M32 7.57895V2.52632C32 1.13053 30.8695 0 29.4737 0H24.4211C23.96 1.87948 23.7294 3.26264 23.7294 4.14947C23.7294 5.03629 23.96 6.17945 24.4211 7.57895C26.0973 8.05894 27.3604 8.29893 28.2106 8.29893C29.0607 8.29893 30.3238 8.05894 32 7.57895Z" fill="#1967D2"/>
<path d="M32 7.5791H24.4211V24.4212H32V7.5791Z" fill="#FBBC04"/>
<path d="M24.4211 24.4211H7.57898V32.0001H24.4211V24.4211Z" fill="#34A853"/>
<path d="M24.4211 0H2.52632C1.13053 0 0 1.13053 0 2.52632V24.4211H7.57895V7.57895H24.4211V0Z" fill="#4285F4"/>
<path d="M11.0337 20.6444C10.4042 20.2191 9.96842 19.5981 9.73053 18.777L11.1916 18.1749C11.3242 18.6802 11.5558 19.0717 11.8863 19.3496C12.2147 19.6275 12.6147 19.7644 13.0821 19.7644C13.56 19.7644 13.9705 19.6191 14.3137 19.3286C14.6568 19.0381 14.8295 18.6675 14.8295 18.2191C14.8295 17.7602 14.6484 17.3854 14.2863 17.0949C13.9242 16.8044 13.4695 16.6591 12.9263 16.6591H12.0821V15.2128H12.84C13.3074 15.2128 13.7011 15.0865 14.0211 14.8338C14.3411 14.5812 14.5011 14.2359 14.5011 13.7959C14.5011 13.4044 14.3579 13.0928 14.0716 12.8591C13.7853 12.6254 13.4232 12.5075 12.9832 12.5075C12.5537 12.5075 12.2126 12.6212 11.96 12.8507C11.7075 13.0808 11.5177 13.3713 11.4084 13.6949L9.96211 13.0928C10.1537 12.5496 10.5053 12.0696 11.0211 11.6549C11.5368 11.2402 12.1958 11.0317 12.9958 11.0317C13.5874 11.0317 14.12 11.1454 14.5916 11.3749C15.0632 11.6044 15.4337 11.9223 15.7011 12.3265C15.9684 12.7328 16.1011 13.1875 16.1011 13.6928C16.1011 14.2086 15.9768 14.6444 15.7284 15.0023C15.48 15.3602 15.1747 15.6338 14.8126 15.8254V15.9117C15.2802 16.1045 15.6863 16.4211 15.9874 16.8275C16.2926 17.2381 16.4463 17.7286 16.4463 18.3012C16.4463 18.8738 16.3011 19.3854 16.0105 19.8338C15.72 20.2823 15.3179 20.6359 14.8084 20.8928C14.2968 21.1496 13.7221 21.2802 13.0842 21.2802C12.3453 21.2823 11.6632 21.0696 11.0337 20.6444ZM20.0084 13.3938L18.4042 14.5538L17.6021 13.337L20.48 11.2612H21.5832V21.0528H20.0084V13.3938Z" fill="#4285F4"/>
</g>
<defs>
<clipPath id="clip0_18_73">
<rect width="32" height="32" fill="white"/>
</clipPath>
</defs>
</svg>
