<svg width="32" height="32" viewBox="0 0 32 32" fill="none" xmlns="http://www.w3.org/2000/svg">
<g clip-path="url(#clip0_18_65)">
<path d="M24.219 10.5729V6.7809C25.245 6.3019 25.901 5.2759 25.907 4.1399V4.0509C25.902 2.4419 24.6 1.1339 22.985 1.1289H22.896C21.281 1.1339 19.974 2.4359 19.969 4.0509V4.1399C19.974 5.2649 20.625 6.2859 21.641 6.7699L21.657 6.7799V10.5819C20.209 10.8009 18.839 11.4049 17.699 12.3269L17.715 12.3169L7.27701 4.1869C8.22001 0.665903 3.62601 -1.5891 1.41801 1.3119C-0.795987 4.2079 2.58501 8.0409 5.73601 6.2079L5.72001 6.2179L15.98 14.2019C15.074 15.5669 14.589 17.1659 14.595 18.8009C14.595 20.5869 15.163 22.2489 16.126 23.6079L16.11 23.5819L12.985 26.7019C12.735 26.6239 12.475 26.5819 12.214 26.5769H12.209C9.79801 26.5769 8.58401 29.4989 10.292 31.2069C12 32.9099 14.922 31.7019 14.922 29.2899C14.917 29.0189 14.87 28.7479 14.787 28.4929L14.792 28.5139L17.881 25.4249C19.923 26.9819 22.569 27.5139 25.053 26.8629C27.532 26.2069 29.579 24.4519 30.589 22.0919C31.605 19.7329 31.474 17.0399 30.235 14.7899C29.001 12.5399 26.792 10.9879 24.261 10.5819L24.209 10.5719L24.219 10.5729ZM22.932 23.0779C19.125 23.0679 17.229 18.4629 19.927 15.7759C22.62 13.0879 27.219 14.9949 27.219 18.8019V18.8069C27.219 21.1659 25.308 23.0779 22.943 23.0779H22.932Z" fill="white"/>
</g>
<defs>
<clipPath id="clip0_18_65">
<rect width="32" height="32" fill="white"/>
</clipPath>
</defs>
</svg>
