<svg width="32" height="32" viewBox="0 0 32 32" fill="none" xmlns="http://www.w3.org/2000/svg">
<path d="M7.33696 17.762C7.33296 17.762 7.32896 17.762 7.32396 17.762C6.91196 17.762 6.53996 17.937 6.27896 18.216L6.27796 18.217C5.98096 18.533 5.79896 18.959 5.79896 19.427C5.79896 19.525 5.80696 19.621 5.82196 19.714L5.82096 19.704C5.85496 19.795 5.90796 19.821 5.94596 19.826C6.02596 19.836 6.14596 19.777 6.22096 19.576L6.24196 19.511C6.29196 19.335 6.35896 19.182 6.44296 19.04L6.43796 19.049C6.59396 18.813 6.85796 18.659 7.15896 18.659C7.33496 18.659 7.49896 18.712 7.63496 18.802L7.63196 18.8C7.86096 18.952 8.00996 19.209 8.00996 19.501C8.00996 19.613 7.98796 19.72 7.94796 19.817L7.94996 19.811C7.84496 20.07 7.78396 20.371 7.78396 20.686C7.78396 20.695 7.78396 20.704 7.78396 20.713C7.78396 20.723 7.78296 20.734 7.78296 20.746C7.78296 21.207 8.13196 21.586 8.57896 21.634H8.58296C8.60196 21.636 8.62396 21.637 8.64596 21.637C8.88996 21.637 9.10396 21.509 9.22496 21.317L9.22696 21.314C9.23796 21.294 9.24496 21.271 9.24496 21.246C9.24496 21.212 9.23296 21.182 9.21296 21.158C9.15896 21.092 9.07196 21.112 8.98796 21.132C8.92796 21.149 8.85896 21.159 8.78796 21.159C8.78396 21.159 8.77996 21.159 8.77596 21.159C8.62996 21.159 8.49996 21.086 8.42196 20.975L8.42096 20.974C8.37696 20.887 8.35196 20.784 8.35196 20.675C8.35196 20.554 8.38396 20.44 8.43896 20.341L8.43696 20.344C8.45096 20.309 8.46796 20.272 8.48696 20.229C8.65496 19.955 8.75496 19.623 8.75496 19.267C8.75496 19.021 8.70696 18.785 8.61996 18.57L8.62396 18.582C8.41096 18.148 8.00096 17.84 7.51496 17.771L7.50696 17.77C7.45596 17.763 7.39596 17.758 7.33496 17.758L7.33696 17.762ZM7.42496 16.604C7.48496 16.604 7.54696 16.604 7.61096 16.608C9.01296 16.776 10.1 17.923 10.175 19.337V19.344C10.446 21.106 10.015 22.897 8.36396 23.179C8.24096 23.2 8.09996 23.212 7.95496 23.212C7.93396 23.212 7.91396 23.212 7.89296 23.211H7.89596C6.20296 23.087 4.83896 21.823 4.56196 20.19L4.55896 20.169C4.52496 20 4.50596 19.805 4.50596 19.606C4.50596 18.153 5.53596 16.94 6.90696 16.659L6.92596 16.656C7.07496 16.625 7.24596 16.606 7.42196 16.604H7.42396H7.42496ZM21.965 16.574C21.956 16.573 21.946 16.573 21.935 16.573C21.798 16.573 21.677 16.647 21.612 16.757L21.611 16.759C21.607 16.783 21.605 16.81 21.605 16.838C21.605 17.148 21.856 17.399 22.166 17.399C22.324 17.399 22.466 17.334 22.568 17.229C22.579 17.19 22.586 17.145 22.586 17.099C22.586 16.889 22.451 16.711 22.264 16.646L22.261 16.645C22.175 16.601 22.073 16.575 21.965 16.574ZM19.14 16.074C19.138 16.074 19.135 16.074 19.132 16.074C19.067 16.074 19.002 16.078 18.939 16.085L18.947 16.084C18.663 16.116 18.409 16.227 18.203 16.395L18.206 16.393C18.109 16.463 18.041 16.567 18.017 16.686L18.016 16.689V16.69C18.016 16.742 18.058 16.784 18.11 16.784C18.217 16.768 18.313 16.741 18.403 16.702L18.395 16.705C18.654 16.604 18.954 16.546 19.268 16.546C19.401 16.546 19.532 16.557 19.66 16.577L19.646 16.575C19.842 16.597 19.933 16.609 19.977 16.543C19.986 16.528 19.991 16.509 19.991 16.49C19.991 16.463 19.981 16.438 19.965 16.418C19.771 16.206 19.492 16.073 19.183 16.073C19.168 16.073 19.153 16.073 19.138 16.074H19.14ZM23.614 15.859C23.4 15.855 23.223 16.091 23.218 16.384C23.213 16.679 23.382 16.921 23.597 16.924C23.812 16.928 23.989 16.693 23.994 16.399C23.999 16.104 23.829 15.863 23.614 15.859ZM18.513 14.847C18.51 14.847 18.507 14.847 18.504 14.847C18.03 14.847 17.593 15 17.237 15.259L17.243 15.255C17.043 15.401 16.854 15.605 16.881 15.727C16.891 15.767 16.92 15.797 16.991 15.806C17.362 15.695 17.835 15.586 18.317 15.504L18.393 15.493C18.417 15.492 18.444 15.492 18.472 15.492C18.863 15.492 19.233 15.585 19.56 15.75L19.546 15.744C19.845 15.874 20.028 15.96 20.1 15.885C20.146 15.838 20.132 15.748 20.061 15.63C19.869 15.356 19.607 15.142 19.3 15.013L19.288 15.009C19.059 14.908 18.793 14.848 18.513 14.847ZM23.087 12.915C23.06 12.915 23.034 12.918 23.009 12.922H23.012C22.593 12.989 22.578 13.507 22.727 14.222C22.795 14.585 22.935 14.907 23.132 15.186L23.127 15.178C23.22 15.165 23.328 15.158 23.438 15.158C23.548 15.158 23.656 15.165 23.762 15.179L23.75 15.178C23.813 14.986 23.849 14.766 23.849 14.537C23.849 14.346 23.824 14.162 23.777 13.986L23.78 14.001C23.64 13.332 23.454 12.911 23.088 12.916L23.087 12.915ZM23.059 10.19L23.129 10.191C23.342 10.2 23.538 10.267 23.703 10.376L23.699 10.373C24.366 10.817 24.461 11.893 24.496 12.679C24.515 13.129 24.57 14.215 24.588 14.526C24.63 15.24 24.818 15.34 25.197 15.464C25.409 15.535 25.609 15.586 25.901 15.669C26.57 15.806 27.156 16.094 27.645 16.497L27.638 16.491C27.803 16.653 27.917 16.867 27.953 17.106L27.954 17.112C28.058 17.872 27.364 18.812 25.527 19.663C24.069 20.318 22.367 20.7 20.576 20.7C20.161 20.7 19.752 20.68 19.347 20.64L19.398 20.644L18.809 20.578C17.462 20.397 16.693 22.136 17.502 23.328C18.28 24.118 19.361 24.607 20.557 24.607C20.664 24.607 20.77 24.603 20.875 24.595L20.861 24.596C20.987 24.602 21.134 24.606 21.281 24.606C23.728 24.606 25.944 23.613 27.546 22.007C27.57 21.976 27.595 21.942 27.618 21.906L27.621 21.901C27.666 21.832 27.629 21.795 27.571 21.834C25.746 23.103 23.484 23.862 21.044 23.862C20.614 23.862 20.189 23.838 19.772 23.792L19.824 23.797C19.504 23.74 19.222 23.661 18.952 23.559L18.985 23.57C18.666 23.445 18 23.14 17.919 22.457C18.645 22.734 19.485 22.894 20.362 22.894C21.188 22.894 21.981 22.752 22.718 22.491L22.669 22.506C22.7 22.491 22.722 22.46 22.722 22.424C22.722 22.421 22.722 22.418 22.722 22.416C22.718 22.373 22.682 22.341 22.639 22.341C22.636 22.341 22.633 22.341 22.63 22.342C22.249 22.39 21.808 22.418 21.361 22.418C20.153 22.418 18.991 22.217 17.908 21.848L17.983 21.87C18.229 21.07 18.883 21.36 19.87 21.439C20.114 21.454 20.399 21.463 20.687 21.463C22.019 21.463 23.307 21.274 24.525 20.922L24.428 20.946C25.731 20.568 26.866 19.988 27.862 19.233L27.836 19.252C28.045 19.721 28.21 20.266 28.305 20.835L28.311 20.875C28.346 20.869 28.387 20.866 28.428 20.866C28.569 20.866 28.701 20.903 28.815 20.968L28.811 20.966C29.027 21.098 29.185 21.373 29.077 22.084C28.857 23.423 28.236 24.589 27.344 25.483C26.761 26.112 26.072 26.633 25.303 27.019L25.262 27.038C24.881 27.244 24.432 27.439 23.965 27.595L23.903 27.613C23.136 27.945 22.244 28.138 21.306 28.138C18.821 28.138 16.653 26.783 15.499 24.772L15.482 24.739C15.397 24.558 15.317 24.342 15.253 24.118L15.245 24.087C15.111 23.625 15.033 23.094 15.033 22.545C15.033 21.07 15.592 19.725 16.509 18.71L16.505 18.715C16.596 18.635 16.657 18.523 16.67 18.397V18.395C16.658 18.278 16.612 18.174 16.542 18.09L16.543 18.091C15.459 17.175 14.775 15.814 14.775 14.293C14.775 14.198 14.778 14.105 14.783 14.011L14.782 14.024C14.972 12.538 16.211 11.395 17.723 11.356H17.727C17.838 11.361 17.948 11.368 18.059 11.375C18.625 11.409 19.121 11.481 19.587 11.5C19.669 11.508 19.764 11.512 19.861 11.512C20.648 11.512 21.365 11.214 21.906 10.725L21.903 10.727C22.138 10.485 22.439 10.308 22.778 10.228L22.79 10.226C22.87 10.204 22.961 10.191 23.055 10.191C23.056 10.191 23.057 10.191 23.059 10.191V10.19ZM19.282 6.18495C19.283 6.18495 19.284 6.18495 19.284 6.18495C19.313 6.18495 19.336 6.20795 19.336 6.23695C19.336 6.25295 19.328 6.26795 19.317 6.27695C19.121 6.42795 18.952 6.59795 18.806 6.78795L18.801 6.79495C18.795 6.80295 18.791 6.81395 18.791 6.82495C18.791 6.85195 18.813 6.87395 18.84 6.87495C19.846 6.90995 20.784 7.17095 21.614 7.60895L21.579 7.59195C21.63 7.62095 21.594 7.72095 21.536 7.70695C20.799 7.53295 19.952 7.43395 19.083 7.43395C18.194 7.43395 17.329 7.53795 16.499 7.73495L16.575 7.71995C15.042 8.07295 13.693 8.68995 12.51 9.52595L12.546 9.50195C12.538 9.50795 12.527 9.51195 12.516 9.51195C12.488 9.51195 12.465 9.48895 12.465 9.46095C12.465 9.44795 12.47 9.43695 12.477 9.42795C13.518 8.20695 14.753 7.18895 16.142 6.41295L16.209 6.37795C16.216 6.37395 16.223 6.37195 16.232 6.37195C16.258 6.37195 16.28 6.39295 16.28 6.41995C16.28 6.42795 16.278 6.43595 16.274 6.44295C16.133 6.68695 16.014 6.96795 15.933 7.26495L15.927 7.28995C15.926 7.29295 15.926 7.29695 15.926 7.29995C15.926 7.32795 15.949 7.35095 15.977 7.35095C15.987 7.35095 15.997 7.34795 16.005 7.34195C16.934 6.72395 18.049 6.30895 19.251 6.18695L19.282 6.18495ZM15.175 2.09495C15.181 2.09495 15.188 2.09495 15.195 2.09495C15.395 2.09495 15.588 2.12095 15.772 2.17095L15.757 2.16695C16.36 2.61795 16.885 3.12095 17.344 3.68095L17.357 3.69695C15.687 4.66095 14.249 5.66295 12.903 6.77195L12.958 6.72795C10.132 9.01395 7.96196 12.006 6.70796 15.439L6.66396 15.578C5.64596 15.772 4.78796 16.341 4.21896 17.132L4.21096 17.144C3.82296 16.842 3.48096 16.512 3.17696 16.15L3.16896 16.14C2.29696 14.483 4.11996 11.264 5.39496 9.44595C8.29696 5.30295 12.715 2.08795 15.177 2.09595L15.175 2.09495ZM15.084 1.00395C9.49096 0.984953 -1.27004 13.808 2.74996 17.204L3.73696 18.04C3.54296 18.543 3.43096 19.126 3.43096 19.734C3.43096 19.926 3.44196 20.116 3.46396 20.302L3.46196 20.279C3.60396 21.42 4.16396 22.409 4.97996 23.106L4.98596 23.111C5.77496 23.83 6.81896 24.282 7.96796 24.315H7.97496C9.82996 28.286 13.79 30.988 18.382 30.988C18.408 30.988 18.433 30.988 18.459 30.988H18.455C18.75 31.016 19.092 31.032 19.438 31.032C23.9 31.032 27.745 28.388 29.491 24.581L29.519 24.512C29.858 23.677 30.077 22.711 30.128 21.7L30.129 21.679C30.129 20.484 29.454 19.989 29.023 19.989C29.011 19.943 28.926 19.632 28.808 19.257C28.729 19 28.648 18.788 28.556 18.584L28.571 18.62C28.845 18.244 29.009 17.773 29.009 17.263C29.009 17.147 29 17.032 28.984 16.92L28.986 16.933C28.911 16.457 28.688 16.042 28.367 15.729C27.762 15.212 27.023 14.833 26.21 14.651L26.176 14.645L25.619 14.49C25.616 14.466 25.589 13.174 25.565 12.619C25.553 12.03 25.464 11.465 25.307 10.93L25.318 10.975C25.116 10.176 24.718 9.48895 24.179 8.94095L24.18 8.94195C25.409 7.83695 26.237 6.30795 26.431 4.58595L26.434 4.55395C26.43 1.93595 23.215 1.14395 19.254 2.78495L18.414 3.14095C17.9013 2.63762 17.388 2.13495 16.874 1.63295C16.414 1.24095 15.813 1.00195 15.157 1.00195C15.131 1.00195 15.105 1.00195 15.08 1.00295L15.084 1.00395Z" fill="black"/>
</svg>
