<svg width="32" height="32" viewBox="0 0 32 32" fill="none" xmlns="http://www.w3.org/2000/svg">
<path d="M11.2481 13.5785V13.3754C11.2481 12.8605 11.6605 12.4335 12.192 12.398L16.0633 12.1395L21.417 20.0233V13.1039L20.039 12.9202V12.8238C20.039 12.3028 20.4608 11.873 20.9991 11.8454L24.5216 11.665V12.1719C24.5216 12.4098 24.3446 12.6134 24.1021 12.6544L23.2544 12.7978V24.0035L22.1906 24.3693C21.3018 24.675 20.3124 24.3478 19.8036 23.5801L14.6061 15.737V23.2228L16.2058 23.5289L16.1836 23.6773C16.1137 24.1421 15.7124 24.4937 15.227 24.5153L11.2481 24.6924C11.1955 24.1925 11.5701 23.7454 12.0869 23.6911L12.6103 23.6361V13.655L11.2481 13.5785Z" fill="black"/>
<path fill-rule="evenodd" clip-rule="evenodd" d="M20.6749 2.96678L4.72347 4.05585C3.76799 4.12109 3.02734 4.88925 3.02734 5.81499V21.3299C3.02734 22.1997 3.32676 23.0448 3.87843 23.7321L7.3178 28.0167C7.87388 28.7094 8.74899 29.0909 9.65435 29.0352L27.3586 27.9454C28.266 27.8895 28.9724 27.1619 28.9724 26.2832V8.64426C28.9724 8.10059 28.6979 7.59115 28.2369 7.27951L22.6325 3.49029C22.0613 3.10413 21.3702 2.91931 20.6749 2.96678ZM5.51447 6.057C5.29261 5.89274 5.3982 5.55055 5.6769 5.53056L20.7822 4.44711C21.2635 4.41259 21.7417 4.54512 22.1309 4.82088L25.1617 6.96813C25.2767 7.04965 25.2228 7.22563 25.0803 7.23338L9.08387 8.10336C8.59977 8.12969 8.12193 7.98747 7.73701 7.7025L5.51447 6.057ZM8.33357 10.8307C8.33357 10.311 8.75341 9.88177 9.29027 9.85253L26.203 8.93145C26.7263 8.90296 27.1667 9.30534 27.1667 9.81182V25.0853C27.1667 25.604 26.7484 26.0328 26.2126 26.0633L9.40688 27.0195C8.8246 27.0527 8.33357 26.6052 8.33357 26.0415V10.8307Z" fill="black"/>
</svg>
