<svg width="32" height="32" viewBox="0 0 32 32" fill="none" xmlns="http://www.w3.org/2000/svg">
<path d="M15.3761 17.3059V10.5175L13.5357 10.4947C11.4266 10.4718 10.7989 10.5267 9.98952 10.7957C8.21582 11.3838 6.90752 12.7918 6.43994 14.6158C6.25006 15.3564 6.22288 16.4647 6.37744 17.1648C6.79519 19.057 8.15036 20.5742 9.99387 21.2135C10.5496 21.4055 10.6864 21.4284 11.4086 21.4526L12.2082 21.4778V20.5132V19.5488L11.5897 19.5191C10.6061 19.4711 9.91448 19.1653 9.22054 18.4695C8.3818 17.6286 8.04987 16.4202 8.31453 15.171C8.52694 14.1687 9.22065 13.2942 10.1566 12.8487C10.8448 12.5212 11.1273 12.4732 12.362 12.4732H13.415V18.2558C13.415 21.4362 13.4337 24.0572 13.4567 24.08C13.4796 24.1029 13.9209 24.1143 14.4372 24.1052L15.3761 24.0823V17.294L15.3761 17.3059ZM21.0783 21.4048C22.9603 21.0999 24.604 19.8277 25.2809 18.1518C25.5938 17.3772 25.6807 16.9102 25.6857 15.9783C25.6896 15.2483 25.6676 15.0192 25.5533 14.5946C25.1192 12.9824 24.0624 11.7056 22.5793 11.0012C21.8589 10.6592 21.3799 10.5438 20.5186 10.5047L19.7477 10.4704L19.7644 11.4597L19.7811 12.449L20.475 12.4855C21.2219 12.5244 21.5101 12.6044 22.0081 12.91C22.7445 13.3614 23.2958 14.014 23.5679 14.7566C23.7433 15.2357 23.7851 16.3445 23.6482 16.889C23.4025 17.8659 22.7595 18.6643 21.859 19.1104C21.2029 19.4355 20.6493 19.5342 19.4643 19.5367L18.5441 19.539V13.7159V7.89307H17.5485H16.5528V14.6814V21.4698L18.6195 21.4693C19.7757 21.4693 20.8588 21.4414 21.0783 21.4048Z" fill="white"/>
</svg>
