<svg width="32" height="32" viewBox="0 0 32 32" fill="none" xmlns="http://www.w3.org/2000/svg">
<path d="M26.4957 6.28389C26.4737 6.12379 26.3336 6.03531 26.2177 6.02559C26.1021 6.01587 23.6552 5.83455 23.6552 5.83455C23.6552 5.83455 21.9558 4.14741 21.7693 3.96072C21.5826 3.77403 21.2182 3.8308 21.0768 3.87249C21.0558 3.87863 20.7054 3.98681 20.1257 4.16608C19.5579 2.53265 18.5562 1.03144 16.7936 1.03144C16.745 1.03144 16.6949 1.03349 16.6448 1.0363C16.1435 0.373416 15.5226 0.0854492 14.9863 0.0854492C10.8806 0.0854492 8.91902 5.21795 8.30396 7.82627C6.70863 8.32063 5.57518 8.67202 5.43043 8.71754C4.53993 8.99681 4.5118 9.02494 4.39493 9.86403C4.3067 10.4993 1.97662 28.5189 1.97662 28.5189L20.1331 31.9208L29.971 29.7925C29.971 29.7925 26.5175 6.44398 26.4957 6.28389ZM19.1221 4.47655C18.6661 4.61772 18.1478 4.77808 17.5859 4.95198C17.5864 4.8438 17.5869 4.73716 17.5869 4.62079C17.5869 3.60549 17.446 2.78814 17.2199 2.14009C18.1281 2.25415 18.7329 3.28735 19.1221 4.47655ZM16.0934 2.34136C16.3458 2.97407 16.51 3.88195 16.51 5.10722C16.51 5.16987 16.5095 5.22716 16.509 5.28521C15.5098 5.59466 14.4241 5.93071 13.336 6.26778C13.9469 3.90983 15.0921 2.77101 16.0934 2.34136ZM14.8735 1.18668C15.0507 1.18668 15.2292 1.24678 15.4001 1.36442C14.0843 1.98357 12.6738 3.54309 12.0782 6.65727C11.2077 6.92683 10.3568 7.19024 9.57014 7.43396C10.2678 5.05863 11.9245 1.18668 14.8735 1.18668Z" fill="#95BF46"/>
<path d="M26.2177 6.02566C26.1021 6.01594 23.6552 5.83462 23.6552 5.83462C23.6552 5.83462 21.9558 4.14748 21.7693 3.96079C21.6995 3.89122 21.6054 3.85568 21.507 3.84033L20.1341 31.9206L29.971 29.7926C29.971 29.7926 26.5175 6.44405 26.4957 6.28396C26.4737 6.12386 26.3336 6.03537 26.2177 6.02566Z" fill="#5E8E3E"/>
<path d="M16.7936 11.4613L15.5806 15.0695C15.5806 15.0695 14.5178 14.5023 13.215 14.5023C11.3051 14.5023 11.209 15.701 11.209 16.003C11.209 17.651 15.5049 18.2824 15.5049 22.1426C15.5049 25.1796 13.5787 27.1352 10.9813 27.1352C7.8646 27.1352 6.27081 25.1954 6.27081 25.1954L7.1053 22.4383C7.1053 22.4383 8.74359 23.8448 10.1261 23.8448C11.0294 23.8448 11.3969 23.1336 11.3969 22.614C11.3969 20.4642 7.87253 20.3683 7.87253 16.836C7.87253 13.8629 10.0064 10.9858 14.3139 10.9858C15.9737 10.9858 16.7936 11.4613 16.7936 11.4613Z" fill="white"/>
</svg>
