<svg width="32" height="32" viewBox="0 0 32 32" fill="none" xmlns="http://www.w3.org/2000/svg">
<g clip-path="url(#clip0_1856_5054)">
<path fill-rule="evenodd" clip-rule="evenodd" d="M13.5396 3C12.1052 3.00106 10.9444 4.1651 10.9454 5.59947C10.9444 7.03384 12.1063 8.19788 13.5407 8.19894H16.1359V5.60053C16.137 4.16616 14.975 3.00212 13.5396 3C13.5407 3 13.5407 3 13.5396 3ZM13.5396 9.93333H6.62111C5.18674 9.93439 4.02482 11.0984 4.02588 12.5328C4.02376 13.9672 5.18568 15.1312 6.62005 15.1333H13.5396C14.974 15.1323 16.1359 13.9682 16.1348 12.5339C16.1359 11.0984 14.974 9.93439 13.5396 9.93333Z" fill="#36C5F0"/>
<path fill-rule="evenodd" clip-rule="evenodd" d="M29.9742 12.5328C29.9752 11.0984 28.8133 9.93439 27.379 9.93333C25.9446 9.93439 24.7827 11.0984 24.7837 12.5328V15.1333H27.379C28.8133 15.1323 29.9752 13.9682 29.9742 12.5328ZM23.0546 12.5328V5.59947C23.0557 4.16616 21.8948 3.00212 20.4605 3C19.0261 3.00106 17.8642 4.1651 17.8652 5.59947V12.5328C17.8631 13.9672 19.025 15.1312 20.4594 15.1333C21.8938 15.1323 23.0557 13.9682 23.0546 12.5328Z" fill="#2EB67D"/>
<path fill-rule="evenodd" clip-rule="evenodd" d="M20.459 29.0001C21.8934 28.9991 23.0553 27.835 23.0542 26.4006C23.0553 24.9663 21.8934 23.8022 20.459 23.8012H17.8638V26.4006C17.8627 27.834 19.0246 28.998 20.459 29.0001ZM20.459 22.0657H27.3786C28.8129 22.0647 29.9748 20.9006 29.9738 19.4663C29.9759 18.0319 28.814 16.8678 27.3796 16.8657H20.4601C19.0257 16.8668 17.8638 18.0308 17.8648 19.4652C17.8638 20.9006 19.0246 22.0647 20.459 22.0657Z" fill="#ECB22E"/>
<path fill-rule="evenodd" clip-rule="evenodd" d="M4.02588 19.4662C4.02482 20.9005 5.18674 22.0646 6.62111 22.0656C8.05548 22.0646 9.2174 20.9005 9.21634 19.4662V16.8667H6.62111C5.18674 16.8678 4.02482 18.0318 4.02588 19.4662ZM10.9454 19.4662V26.3995C10.9433 27.8339 12.1052 28.9979 13.5396 29C14.974 28.999 16.1359 27.8349 16.1348 26.4006V19.4683C16.1369 18.0339 14.975 16.8699 13.5407 16.8678C12.1052 16.8678 10.9444 18.0318 10.9454 19.4662Z" fill="#E01E5A"/>
</g>
<defs>
<clipPath id="clip0_1856_5054">
<rect width="26" height="26" fill="white" transform="translate(4 3)"/>
</clipPath>
</defs>
</svg>
