<svg width="32" height="32" viewBox="0 0 32 32" fill="none" xmlns="http://www.w3.org/2000/svg">
<g clip-path="url(#clip0_18_53)">
<path d="M13.706 9.66295C13.706 8.26895 14.868 7.73195 16.731 7.73195C19.444 7.73195 22.887 8.56295 25.6 10.026V1.63295C22.644 0.451953 19.694 0.00195312 16.737 0.00195312C9.50601 0.00195312 4.68701 3.77695 4.68701 10.089C4.68701 19.958 18.237 18.358 18.237 22.614C18.237 24.264 16.806 24.795 14.818 24.795C11.868 24.795 8.05501 23.576 5.06201 21.951V29.982C8.14101 31.311 11.458 31.999 14.812 32.007C22.225 32.007 27.331 28.819 27.331 22.407C27.331 11.77 13.706 13.676 13.706 9.66295Z" fill="white"/>
</g>
<defs>
<clipPath id="clip0_18_53">
<rect width="32" height="32" fill="white"/>
</clipPath>
</defs>
</svg>
